<svg width="6" height="10" viewBox="0 0 6 10" fill="none" xmlns="http://www.w3.org/2000/svg">
<path d="M4.40727 4.99976L0.640892 8.76613C0.541559 8.86547 0.493142 8.98242 0.495642 9.11701C0.498226 9.25167 0.549184 9.36867 0.648517 9.46801C0.747934 9.56734 0.864933 9.61701 0.999517 9.61701C1.1341 9.61701 1.2511 9.56734 1.35052 9.46801L5.18602 5.64013C5.27643 5.54971 5.34343 5.44842 5.38702 5.33626C5.4306 5.22409 5.45239 5.11192 5.45239 4.99976C5.45239 4.88759 5.4306 4.77542 5.38702 4.66326C5.34343 4.55109 5.27643 4.4498 5.18602 4.35938L1.35052 0.523755C1.2511 0.424422 1.13281 0.376047 0.995642 0.378631C0.858476 0.381214 0.740225 0.432172 0.640892 0.531505C0.541559 0.630839 0.491892 0.747839 0.491892 0.882506C0.491892 1.01709 0.541559 1.13405 0.640892 1.23338L4.40727 4.99976Z" fill="white"/>
</svg>
