<svg width="30" height="30" viewBox="0 0 30 30" fill="none" xmlns="http://www.w3.org/2000/svg">
<mask id="mask0_1_1249" style="mask-type:alpha" maskUnits="userSpaceOnUse" x="0" y="0" width="30" height="30">
<rect width="30" height="30" fill="#D9D9D9"/>
</mask>
<g mask="url(#mask0_1_1249)">
<path d="M15 15.8847L8.44222 22.4422C8.32534 22.5593 8.1819 22.6218 8.0119 22.6297C7.84211 22.6378 7.69076 22.5753 7.55784 22.4422C7.42472 22.3093 7.35815 22.1619 7.35815 22C7.35815 21.8381 7.42472 21.6907 7.55784 21.5578L14.1153 15L7.55784 8.44219C7.44076 8.32531 7.37826 8.18188 7.37034 8.01188C7.36222 7.84208 7.42472 7.69073 7.55784 7.55781C7.69076 7.42469 7.83815 7.35813 8.00003 7.35813C8.1619 7.35813 8.3093 7.42469 8.44222 7.55781L15 14.1153L21.5578 7.55781C21.6747 7.44073 21.8182 7.37823 21.9882 7.37031C22.1579 7.36219 22.3093 7.42469 22.4422 7.55781C22.5753 7.69073 22.6419 7.83812 22.6419 8C22.6419 8.16188 22.5753 8.30927 22.4422 8.44219L15.8847 15L22.4422 21.5578C22.5593 21.6747 22.6218 21.8181 22.6297 21.9881C22.6378 22.1579 22.5753 22.3093 22.4422 22.4422C22.3093 22.5753 22.1619 22.6419 22 22.6419C21.8382 22.6419 21.6908 22.5753 21.5578 22.4422L15 15.8847Z" fill="white"/>
</g>
</svg>
